<?xml version="1.0" encoding="UTF-8"?>
<svg version="1.1" xmlns="http://www.w3.org/2000/svg" width="1080" height="1080">
<path d="M0 0 C0.92554688 0.00161133 1.85109375 0.00322266 2.8046875 0.00488281 C11.85274612 0.16713703 20.05185469 1.73935469 26.6875 8.375 C28.88243838 12.76487675 27.9543068 17.51528922 26.5625 22 C24.42160339 25.8536139 22.44331143 28.97263413 18.6875 31.375 C14.65334274 32.07937666 12.37946617 32.34743529 8.83203125 30.30859375 C7.6477019 29.4327652 6.47821914 28.53651428 5.32421875 27.62109375 C0.18026033 23.70481037 -6.14069114 23.77588758 -12.3125 24.375 C-16.83026511 25.28160042 -19.52266113 26.31365402 -22.3125 30.0625 C-23.95919355 35.51717237 -24.16309614 40.01826689 -21.9375 45.25 C-17.19706167 53.76275898 -8.80909436 60.02986454 -1.1484375 65.78125 C-0.54257812 66.3071875 0.06328125 66.833125 0.6875 67.375 C0.6875 68.035 0.6875 68.695 0.6875 69.375 C1.26757812 69.63152344 1.84765625 69.88804687 2.4453125 70.15234375 C12.01844677 75.37253717 18.53632722 86.25807686 21.6875 96.375 C24.61852195 109.16491398 21.24747922 121.36711159 14.484375 132.32421875 C5.93733661 144.82549042 -8.0155935 152.9656187 -22.69921875 155.90234375 C-37.39521395 157.8247388 -52.74580556 157.1170483 -65.3125 148.375 C-68.99278367 145.17896418 -70.17550853 143.12164121 -70.5625 138.1875 C-70.00977736 129.75847969 -66.44446019 124.09991359 -60.3125 118.375 C-56.93635402 116.05389964 -55.00511655 115.42630493 -50.9375 115.125 C-46.24126862 116.74439013 -44.45065168 119.32886033 -41.3359375 123.08203125 C-36.29573702 128.79360979 -30.54223962 131.16337071 -23.06640625 132.203125 C-18.82768349 132.4676694 -15.05297171 132.59515095 -11.3125 130.375 C-7.88092748 125.24408646 -7.52878243 118.35774536 -8.3125 112.375 C-11.38016828 102.26973978 -18.69291948 95.80984323 -26.82958984 89.60473633 C-39.50081295 79.93759726 -52.5669453 68.94466343 -55.3125 52.375 C-56.17853994 39.6675294 -54.01237615 30.52226955 -46.3125 20.375 C-45.714375 19.55773437 -45.11625 18.74046875 -44.5 17.8984375 C-37.77489076 10.14054363 -28.08993009 5.07463377 -18.3125 2.375 C-16.49105469 1.84326172 -16.49105469 1.84326172 -14.6328125 1.30078125 C-9.76617238 0.10884602 -4.99271648 -0.00903169 0 0 Z " fill="#4D2516" transform="translate(366.3125,413.625)"/>
<path d="M0 0 C2.0141926 3.02434998 1.33002982 5.5759403 0.97265625 9.1171875 C0.85277344 10.38949219 0.73289062 11.66179687 0.609375 12.97265625 C0.50238281 13.94847656 0.39539063 14.92429687 0.28515625 15.9296875 C0.67445313 15.42179687 1.06375 14.91390625 1.46484375 14.390625 C7.36934978 7.12563371 14.84591954 1.47428987 24.28515625 -0.0703125 C30.36150828 -0.14519712 34.52473961 0.9442224 39.28515625 4.9296875 C48.27052882 14.68523486 47.91499054 25.86479164 47.45996094 38.35107422 C46.36909131 54.44292484 39.15413142 70.02469 27.28515625 80.9296875 C20.44476299 86.77692021 12.47856277 89.95486395 3.40234375 89.91796875 C-0.17713278 89.5996771 -3.30057243 89.06777794 -6.71484375 87.9296875 C-7.1763313 91.38760723 -7.63375982 94.84605103 -8.08984375 98.3046875 C-8.22777344 99.34657227 -8.36570312 100.38845703 -8.5078125 101.46191406 C-9.24709939 107.11193138 -9.92378501 112.75933825 -10.48779297 118.42944336 C-12.32476919 136.63526041 -12.32476919 136.63526041 -17.02734375 143.1171875 C-22.06223748 146.5660897 -28.96616367 145.63058921 -34.71484375 144.9296875 C-39.11647381 143.72199791 -42.46799076 142.06652405 -45.83984375 138.9921875 C-47.03182935 136.18250715 -46.82910234 134.75247594 -45.71484375 131.9296875 C-44.81765625 131.4965625 -44.81765625 131.4965625 -43.90234375 131.0546875 C-40.41244577 129.25988283 -39.11735206 126.44055607 -37.71484375 122.9296875 C-34.9609243 112.74509528 -33.68435512 102.27671607 -32.40722656 91.82739258 C-32.09226126 89.26187903 -31.76359114 86.69838373 -31.43359375 84.13476562 C-29.02705842 65.04099594 -28.54143798 45.96661853 -28.15234375 26.7421875 C-28.10899417 24.7089786 -28.06537572 22.67577541 -28.02148438 20.64257812 C-27.91618564 15.73834128 -27.81447498 10.83404262 -27.71484375 5.9296875 C-26.14853561 5.11845899 -24.57885367 4.31374277 -23.0078125 3.51171875 C-22.13406982 3.0628833 -21.26032715 2.61404785 -20.36010742 2.15161133 C-14.88257046 -0.37862148 -5.48663594 -3.4244607 0 0 Z M9.91015625 23.1171875 C-2.43208749 34.81408517 -5.11234512 51.3132553 -5.63671875 67.484375 C-5.6625 68.62132812 -5.68828125 69.75828125 -5.71484375 70.9296875 C-1.40949174 73.70424769 1.09607813 74.56694271 6.28515625 73.9296875 C13.06985967 70.80872393 15.36320436 65.06118263 18.35546875 58.62890625 C19.53823142 55.19491883 20.00066488 51.76980081 20.41015625 48.1796875 C20.5342688 47.1112561 20.5342688 47.1112561 20.66088867 46.02124023 C21.66356378 36.97861525 21.66737505 30.44563126 18.28515625 21.9296875 C14.68926408 20.40415749 12.87886766 20.81861411 9.91015625 23.1171875 Z " fill="#4D2517" transform="translate(424.71484375,480.0703125)"/>
<path d="M0 0 C2.97233029 3.1733704 2.46681154 6.67265921 2.37158203 10.79272461 C2.35970856 11.71060257 2.34783508 12.62848053 2.33560181 13.57417297 C2.0077027 26.33791764 0.22092099 38.98798176 -1.45565796 51.63000488 C-1.8264273 54.44222577 -2.18711797 57.25570373 -2.54784775 60.06922722 C-5.50016611 83.08605771 -8.67965453 106.0719311 -12.10498047 129.02319336 C0.71344807 128.74566518 13.24170414 128.45725228 25.78564453 125.64428711 C28.59575552 125.08297097 31.04249836 124.89987008 33.89501953 125.02319336 C35.78106028 130.68131562 33.22741515 137.23445834 30.71923828 142.48413086 C27.65918842 147.58105601 25.20914892 150.37003225 19.35205078 152.02319336 C2.47096672 156.09747866 -26.08898389 160.10659653 -42.10498047 152.02319336 C-45.68635197 148.12420487 -45.45386903 145.18237202 -45.30895996 140.09872437 C-44.96367539 134.89264516 -44.26477487 129.76363468 -43.49560547 124.60522461 C-43.32865677 123.44120621 -43.16170807 122.27718781 -42.98970032 121.07789612 C-42.63423971 118.60377052 -42.2754669 116.13011881 -41.91360474 113.65692139 C-40.97528258 107.23839803 -40.06343366 100.81610026 -39.14794922 94.39428711 C-38.87850746 92.51129913 -38.87850746 92.51129913 -38.60362244 90.590271 C-37.21534731 80.86869714 -35.89066351 71.14187568 -34.66748047 61.39819336 C-34.51633789 60.21974854 -34.36519531 59.04130371 -34.20947266 57.82714844 C-32.59382795 44.7520758 -31.94752209 31.75569007 -32.04248047 18.58569336 C-32.04699219 17.3655957 -32.05150391 16.14549805 -32.05615234 14.88842773 C-32.0677411 11.93329403 -32.08404986 8.97827306 -32.10498047 6.02319336 C-23.21171416 1.33601156 -9.94280892 -4.61391539 0 0 Z " fill="#24589A" transform="translate(261.10498046875,414.976806640625)"/>
<path d="M0 0 C2.51217375 2.45251618 2.4285299 3.89268157 2.55859375 7.36572266 C2.61547363 8.49236328 2.67235352 9.61900391 2.73095703 10.77978516 C2.80032471 12.59736328 2.80032471 12.59736328 2.87109375 14.45166016 C3.55267556 27.33975266 5.21927336 39.83375427 7.53564453 52.52197266 C7.87109375 54.82666016 7.87109375 54.82666016 7.87109375 58.82666016 C8.53109375 58.82666016 9.19109375 58.82666016 9.87109375 58.82666016 C10.04125 58.23240234 10.21140625 57.63814453 10.38671875 57.02587891 C12.05380202 51.32409941 13.93657484 45.74329055 16.00390625 40.17431641 C17.46005483 36.23222048 18.01167661 33.18518141 18.08203125 28.98681641 C18.12457031 27.26881836 18.12457031 27.26881836 18.16796875 25.51611328 C18.21996462 23.10220481 18.26426186 20.68811798 18.30078125 18.27392578 C18.33171875 17.12730469 18.36265625 15.98068359 18.39453125 14.79931641 C18.41435059 13.7501001 18.43416992 12.70088379 18.45458984 11.61987305 C18.9227613 8.48016046 19.70168911 7.1069367 21.87109375 4.82666016 C27.2272915 2.31711296 33.00098789 1.2151908 38.87109375 1.82666016 C41.68360282 4.63916923 41.39816413 6.8213443 41.80078125 10.75634766 C41.955846 12.19768623 42.11104327 13.63901055 42.26635742 15.08032227 C42.34453705 15.83586395 42.42271667 16.59140564 42.50326538 17.36984253 C44.62493767 39.39874767 44.62493767 39.39874767 49.87109375 60.82666016 C60.47376188 42.23568042 60.64109206 24.90860426 58.87109375 3.82666016 C64.99588856 -0.39264294 69.46573164 -2.10689486 76.87109375 -1.17333984 C82.51138152 1.74752347 82.51138152 1.74752347 83.87109375 5.82666016 C86.47068724 31.55934509 73.47124478 58.33320505 57.58203125 77.88916016 C52.61522521 83.51367111 48.49943671 86.97906649 40.87109375 87.82666016 C35.75690784 86.42276599 33.5651209 83.62541486 31.03125 79.20947266 C28.9255631 74.88466118 27.37642118 70.38865683 25.87109375 65.82666016 C25.50371094 64.72580078 25.13632812 63.62494141 24.7578125 62.49072266 C24.46519531 61.61158203 24.17257812 60.73244141 23.87109375 59.82666016 C23.60296875 60.56529297 23.33484375 61.30392578 23.05859375 62.06494141 C19.394975 71.54937548 14.4949387 82.2239517 4.87109375 86.82666016 C1.31210929 87.9388428 -0.58689991 87.97045776 -4.19140625 87.01416016 C-8.51357658 83.79552268 -10.0573075 79.69939078 -12.12890625 74.82666016 C-12.60070312 73.84568359 -13.0725 72.86470703 -13.55859375 71.85400391 C-15.9706676 66.18475003 -17.17892663 60.12101904 -18.56640625 54.13916016 C-18.71820343 53.48980499 -18.87000061 52.84044983 -19.02639771 52.17141724 C-26.41253173 20.35911893 -26.41253173 20.35911893 -26.12890625 4.82666016 C-6.37347749 -3.51272166 -6.37347749 -3.51272166 0 0 Z " fill="#4D2618" transform="translate(772.12890625,482.17333984375)"/>
<path d="M0 0 C3.3431044 2.98279204 3.67785505 5.94772073 4.04296875 10.27929688 C4.08808594 11.14361328 4.13320313 12.00792969 4.1796875 12.8984375 C4.28216797 14.22391602 4.28216797 14.22391602 4.38671875 15.57617188 C4.55079803 17.74436232 4.68112437 19.91506119 4.8046875 22.0859375 C5.09601562 21.456875 5.38734375 20.8278125 5.6875 20.1796875 C10.01501877 11.14361057 14.36478892 3.37513414 23.8046875 -0.9140625 C27.4296875 -1.9765625 27.4296875 -1.9765625 30.8046875 -1.9140625 C34.2421875 0.0234375 34.2421875 0.0234375 36.8046875 2.0859375 C37.8978125 1.4259375 38.9909375 0.7659375 40.1171875 0.0859375 C45.26129925 -2.47696515 50.15755851 -2.79780726 55.8046875 -1.9140625 C58.80342018 -0.2347722 60.36159923 0.67862977 61.40209961 3.98339844 C62.05698645 7.40358371 62.18016176 10.8652303 62.3671875 14.3359375 C62.41037109 15.08101563 62.45355469 15.82609375 62.49804688 16.59375 C62.60365475 18.4242865 62.70462951 20.25508926 62.8046875 22.0859375 C63.16820312 21.30089844 63.53171875 20.51585937 63.90625 19.70703125 C68.553823 9.99479536 72.387586 3.46038458 82.40625 -1.09765625 C85.65961152 -2.20507084 87.61426095 -2.20542563 90.8046875 -0.9140625 C93.6729081 1.48904125 95.6119628 3.38616885 96.04296875 7.1875 C96.22249246 13.29130625 95.53431909 18.10158417 91.8046875 23.0859375 C89.96875 24.84765625 89.96875 24.84765625 87.8046875 26.0859375 C85.4375 25.984375 85.4375 25.984375 82.9296875 25.4609375 C79.33274276 24.94803651 79.33274276 24.94803651 75.92578125 25.91015625 C64.33481711 35.11901748 64.24699781 55.40380635 62.6796875 68.9609375 C62.5188392 70.4209762 62.35875067 71.88109882 62.19946289 73.34130859 C62.08183846 74.37934631 62.08183846 74.37934631 61.96183777 75.43835449 C61.74603012 77.34988876 61.54044664 79.26256919 61.33544922 81.17529297 C60.8046875 84.0859375 60.8046875 84.0859375 58.8046875 86.0859375 C50.7024896 86.84861383 43.19413704 86.70525972 35.8046875 83.0859375 C34.66025084 77.33303105 35.10935573 72.64324833 36.1171875 66.8984375 C38.36430565 52.94849323 39.95901311 39.10543913 40.0546875 24.9609375 C40.06858521 23.67123047 40.06858521 23.67123047 40.08276367 22.35546875 C40.26366293 17.74106193 40.26366293 17.74106193 37.8046875 14.0859375 C37.56234375 14.70082031 37.32 15.31570313 37.0703125 15.94921875 C36.73515625 16.75746094 36.4 17.56570313 36.0546875 18.3984375 C35.72984375 19.19894531 35.405 19.99945313 35.0703125 20.82421875 C33.60018183 23.45139671 32.45041958 24.65104497 29.8046875 26.0859375 C27.21800472 26.05228959 24.87979125 25.58827513 22.33984375 25.1171875 C18.95316653 25.07544109 17.4715918 26.03852827 14.8046875 28.0859375 C4.39222643 41.15157375 3.87683814 63.21757379 1.7043457 79.15625 C0.90146744 84.98915756 0.90146744 84.98915756 -0.1953125 86.0859375 C-8.2306355 86.65988914 -15.8258261 86.61524488 -23.1953125 83.0859375 C-24.1953125 82.0859375 -24.1953125 82.0859375 -24.37890625 78.37109375 C-24.30738075 72.00783406 -23.22190604 65.80067431 -22.2578125 59.5234375 C-20.87650299 49.97277308 -19.73298234 40.47738516 -19.2578125 30.8359375 C-19.17188843 29.40205688 -19.17188843 29.40205688 -19.08422852 27.93920898 C-18.84823106 21.69832555 -19.90500976 16.86604928 -22.1953125 11.0859375 C-23.1953125 7.8359375 -23.1953125 7.8359375 -23.1953125 5.0859375 C-17.73979053 -2.18809179 -7.86218854 -4.70962394 0 0 Z " fill="#4C2517" transform="translate(580.1953125,482.9140625)"/>
<path d="M0 0 C1.94326172 -0.05607422 1.94326172 -0.05607422 3.92578125 -0.11328125 C9.59065848 0.52791461 12.53918795 3.13808995 16.4375 7.125 C20.60730752 9.93160121 22.89965813 9.46633345 27.7109375 8.70703125 C28.36320313 8.57683594 29.01546875 8.44664062 29.6875 8.3125 C30.89943951 11.94831854 30.04816841 12.74324621 28.52441406 16.05078125 C26.7196791 20.92798798 26.26978756 26.18413527 25.5625 31.3125 C25.39218262 32.51551758 25.22186523 33.71853516 25.04638672 34.95800781 C22.28551737 51.26931258 22.28551737 51.26931258 24.6875 67.3125 C27.15028801 69.77528801 29.39426982 70.31021255 32.6875 71.3125 C33.32612405 75.56999364 32.5754838 77.99105851 30.1875 81.4375 C26.45826109 86.00713077 22.44386234 88.63466018 16.609375 89.6875 C11.48439432 90.00047592 8.49997061 88.60508825 4.6875 85.3125 C0.80248161 80.67206137 -0.32898614 76.13593731 -1.3125 70.3125 C-1.80878906 70.96476563 -2.30507813 71.61703125 -2.81640625 72.2890625 C-15.11521003 88.11181196 -15.11521003 88.11181196 -25.47265625 89.62890625 C-31.21106566 89.93403608 -35.62271326 88.64040544 -40.3125 85.3125 C-46.37729947 79.6940944 -47.92654074 73.25404397 -48.55078125 65.26171875 C-48.98557559 46.15365175 -42.90380521 28.35853158 -29.93334961 14.09423828 C-21.68519052 5.64818799 -11.885679 0.22337082 0 0 Z M-8.3125 13.3125 C-19.6553429 25.30350535 -22.54810371 42.33856855 -22.3125 58.3125 C-22.04670724 63.37508315 -22.04670724 63.37508315 -19.3125 67.3125 C-16.98734501 68.06592517 -16.98734501 68.06592517 -14.3125 67.3125 C-3.9344225 57.81766314 1.06688043 41.30200757 1.84765625 27.4765625 C1.48692783 22.32078555 -0.22250302 18.43249597 -3.3125 14.3125 C-5.93352997 13.26739639 -5.93352997 13.26739639 -8.3125 13.3125 Z " fill="#4B2417" transform="translate(521.3125,480.6875)"/>
<path d="M0 0 C8.93360039 6.51821954 14.05289003 14.95004966 15.828125 25.92578125 C17.62089451 42.5835979 14.09273747 57.52467237 4.2265625 71.13671875 C-1.89601932 78.56065905 -10.10455439 84.48467105 -19.890625 85.5390625 C-30.33772309 86.34075828 -38.2860047 85.3502043 -47.015625 79.4140625 C-47.634375 78.7953125 -48.253125 78.1765625 -48.890625 77.5390625 C-48.890625 76.8790625 -48.890625 76.2190625 -48.890625 75.5390625 C-49.880625 75.2090625 -50.870625 74.8790625 -51.890625 74.5390625 C-53.4609375 71.7734375 -53.4609375 71.7734375 -55.015625 68.2890625 C-55.53382813 67.14953125 -56.05203125 66.01 -56.5859375 64.8359375 C-62.19253138 50.66837693 -59.06368732 32.99225326 -53.328125 19.2890625 C-47.10821053 8.39816168 -37.8796685 0.85484103 -26.01953125 -3.08203125 C-17.22446184 -4.64739223 -7.78908635 -4.67867938 0 0 Z M-27.890625 16.5390625 C-34.90315693 27.1877221 -34.06948039 43.9463119 -32.390625 56.18359375 C-31.40504596 60.72509716 -30.29821276 63.95032463 -27.640625 67.7890625 C-24.00448527 70.1029696 -22.12085416 70.37000037 -17.890625 69.5390625 C-11.45453037 63.98061713 -9.99405986 55.68062242 -8.890625 47.5390625 C-7.76343729 29.45243498 -7.76343729 29.45243498 -14.890625 13.5390625 C-20.74550936 9.63580626 -23.61467533 11.3629129 -27.890625 16.5390625 Z " fill="#4C2517" transform="translate(727.890625,484.4609375)"/>
<path d="M0 0 C2.08102474 0.00543855 4.16203811 0.00780724 6.2430687 0.00987244 C36.33812557 0.0563866 65.54917357 2.11620966 95.23687363 7.31785583 C96.22042831 7.48140564 97.203983 7.64495544 98.21734238 7.8134613 C99.6656041 8.061203 99.6656041 8.061203 101.14312363 8.31394958 C102.43186386 8.53135803 102.43186386 8.53135803 103.74663925 8.75315857 C107.6407928 9.63621515 110.47795424 10.43244988 113.11187363 13.50535583 C114.62835306 17.29655441 114.35438685 19.40655954 113.23687363 23.31785583 C111.36187363 26.25535583 111.36187363 26.25535583 108.23687363 28.31785583 C99.97816553 30.09091181 90.92825494 27.17886179 82.83843613 25.46629333 C73.03350866 23.41182792 63.1310896 21.87334251 53.23687363 20.31785583 C52.53787949 20.20699646 51.83888535 20.09613708 51.11870956 19.98191833 C28.26956513 16.4278738 5.21872918 15.94214409 -17.85464096 16 C-20.10695437 16.00543138 -22.35925729 16.00780497 -24.61157608 16.00987244 C-52.81482539 16.05021555 -80.73104237 16.65728584 -108.43500137 22.54832458 C-112.64270609 23.38293387 -116.47603995 23.60586494 -120.76312637 23.31785583 C-121.42312637 22.65785583 -122.08312637 21.99785583 -122.76312637 21.31785583 C-122.57562637 18.81785583 -122.57562637 18.81785583 -121.76312637 16.31785583 C-118.8346903 14.36556512 -116.99741899 13.72890807 -113.63422012 12.91551208 C-112.60860977 12.66648132 -111.58299942 12.41745056 -110.52630997 12.16087341 C-109.42883438 11.90330261 -108.3313588 11.64573181 -107.20062637 11.38035583 C-106.06963516 11.11311707 -104.93864395 10.8458783 -103.77338028 10.57054138 C-94.48039216 8.41298176 -85.20688719 6.64956753 -75.76312637 5.31785583 C-74.90074356 5.19313904 -74.03836075 5.06842224 -73.14984512 4.93992615 C-48.76431725 1.44765642 -24.63456126 -0.06699709 0 0 Z " fill="#4A2417" transform="translate(561.763126373291,591.6821441650391)"/>
<path d="M0 0 C0.928125 0.20625 1.85625 0.4125 2.8125 0.625 C2.8125 3.265 2.8125 5.905 2.8125 8.625 C-3.2421875 8.8203125 -3.2421875 8.8203125 -5.1875 8.625 C-5.8475 7.965 -6.5075 7.305 -7.1875 6.625 C-7 4.125 -7 4.125 -6.1875 1.625 C-3.1875 -0.375 -3.1875 -0.375 0 0 Z " fill="#51291D" transform="translate(446.1875,606.375)"/>
<path d="M0 0 C0.515625 0.32097656 1.03125 0.64195312 1.5625 0.97265625 C1.5625 1.63265625 1.5625 2.29265625 1.5625 2.97265625 C0.67949219 2.87726563 -0.20351563 2.781875 -1.11328125 2.68359375 C-11.23299256 1.74879765 -19.88741821 2.35911179 -29.4375 5.97265625 C-29.4375 5.31265625 -29.4375 4.65265625 -29.4375 3.97265625 C-20.69249373 -0.58712355 -9.67461962 -4.0776041 0 0 Z " fill="#3B1B0F" transform="translate(531.4375,482.02734375)"/>
<path d="M0 0 C0.33 0 0.66 0 1 0 C2.3887534 12.21727649 1.43741764 23.82329558 0 36 C-2 34 -2 34 -2.15112305 31.72851562 C-2.10511963 30.79716797 -2.05911621 29.86582031 -2.01171875 28.90625 C-1.94114258 27.359375 -1.94114258 27.359375 -1.86914062 25.78125 C-1.77922852 24.15703125 -1.77922852 24.15703125 -1.6875 22.5 C-1.61499023 20.9221875 -1.61499023 20.9221875 -1.54101562 19.3125 C-1.22511753 12.8505846 -0.71570791 6.42969712 0 0 Z " fill="#1C5192" transform="translate(230,438)"/>
<path d="M0 0 C1.24040039 0.01353516 1.24040039 0.01353516 2.50585938 0.02734375 C4.52486708 0.05068488 6.54372356 0.08654712 8.5625 0.125 C8.8925 0.785 9.2225 1.445 9.5625 2.125 C6.13676063 2.90028479 2.99010755 3.24418778 -0.51953125 3.22265625 C-1.45087891 3.21943359 -2.38222656 3.21621094 -3.34179688 3.21289062 C-4.30150391 3.20451172 -5.26121094 3.19613281 -6.25 3.1875 C-7.71856445 3.18073242 -7.71856445 3.18073242 -9.21679688 3.17382812 C-11.62376111 3.16208684 -14.03059857 3.14566419 -16.4375 3.125 C-16.4375 2.795 -16.4375 2.465 -16.4375 2.125 C-10.81492839 0.2080427 -5.91380615 -0.12389924 0 0 Z " fill="#31549E" transform="translate(250.4375,566.875)"/>
<path d="M0 0 C0.66 0 1.32 0 2 0 C2.06058594 0.99902344 2.12117187 1.99804688 2.18359375 3.02734375 C2.26738281 4.31769531 2.35117187 5.60804688 2.4375 6.9375 C2.51871094 8.22527344 2.59992187 9.51304687 2.68359375 10.83984375 C2.64919188 13.86023957 2.64919188 13.86023957 4 15 C4.23880597 22.52238806 4.23880597 22.52238806 3 25 C2.01 25 1.02 25 0 25 C0.01740234 23.53240234 0.01740234 23.53240234 0.03515625 22.03515625 C0.12309937 13.31342786 0.12309937 13.31342786 -0.5625 4.625 C-0.706875 3.42875 -0.85125 2.2325 -1 1 C-0.67 0.67 -0.34 0.34 0 0 Z " fill="#3F2015" transform="translate(832,490)"/>
<path d="M0 0 C0.33 0 0.66 0 1 0 C1.125 6.625 1.125 6.625 0 10 C0 10.86625 0 11.7325 0 12.625 C0 13.40875 0 14.1925 0 15 C-0.33 15.33 -0.66 15.66 -1 16 C-1.04080783 17.99958364 -1.04254356 20.00045254 -1 22 C-1.66 22 -2.32 22 -3 22 C-3.33 22.66 -3.66 23.32 -4 24 C-2.58646617 2.58646617 -2.58646617 2.58646617 0 0 Z " fill="#1C5290" transform="translate(226,493)"/>
<path d="M0 0 C1 1.8125 1 1.8125 0.6875 4.5 C0.460625 5.263125 0.23375 6.02625 0 6.8125 C-0.66 6.8125 -1.32 6.8125 -2 6.8125 C-2 5.1625 -2 3.5125 -2 1.8125 C-8.435 2.3075 -8.435 2.3075 -15 2.8125 C-15 1.8225 -15 0.8325 -15 -0.1875 C-3.94782609 -2.34402174 -3.94782609 -2.34402174 0 0 Z " fill="#421D14" transform="translate(425,480.1875)"/>
<path d="M0 0 C0.66 0 1.32 0 2 0 C2 10.89 2 21.78 2 33 C1.67 33 1.34 33 1 33 C0.67 26.07 0.34 19.14 0 12 C-0.33 12 -0.66 12 -1 12 C-1.02687279 10.18757948 -1.04633715 8.37504767 -1.0625 6.5625 C-1.07410156 5.55316406 -1.08570313 4.54382813 -1.09765625 3.50390625 C-1 1 -1 1 0 0 Z " fill="#451F11" transform="translate(398,485)"/>
<path d="M0 0 C0.33 0 0.66 0 1 0 C1 5.61 1 11.22 1 17 C0.01 17.33 -0.98 17.66 -2 18 C-2.05382106 15.37472811 -2.09358313 12.75055287 -2.125 10.125 C-2.14175781 9.37863281 -2.15851563 8.63226563 -2.17578125 7.86328125 C-2.1933959 5.90805539 -2.10320189 3.95257979 -2 2 C-1.34 1.34 -0.68 0.68 0 0 Z " fill="#421E0F" transform="translate(471,501)"/>
<path d="M0 0 C2.375 2 2.375 2 4 4 C3.34 5.65 2.68 7.3 2 9 C1.67 9 1.34 9 1 9 C1 7.02 1 5.04 1 3 C-3.62 3.33 -8.24 3.66 -13 4 C-11 1 -11 1 -8.75 0.3125 C-5.71084971 -0.03285799 -3.05219165 -0.32470124 0 0 Z " fill="#3E1C11" transform="translate(770,481)"/>
<path d="M0 0 C7.07721931 -0.12109311 13.97195301 0.14626761 21 1 C21 1.66 21 2.32 21 3 C13.92278069 3.12109311 7.02804699 2.85373239 0 2 C0 1.34 0 0.68 0 0 Z " fill="#502B1D" transform="translate(576,606)"/>
<path d="M0 0 C1.125 1.5 1.125 1.5 2 4 C1.59743391 5.84509456 1.17572427 7.68889477 0.640625 9.5 C-0.43911902 13.7136352 -0.88335174 18.03035145 -1.4375 22.33984375 C-1.7159375 23.65662109 -1.7159375 23.65662109 -2 25 C-2.66 25.33 -3.32 25.66 -4 26 C-3.68889371 23.14567529 -3.37615574 20.29154475 -3.0625 17.4375 C-2.97548828 16.63763672 -2.88847656 15.83777344 -2.79882812 15.01367188 C-1.2859805 1.2859805 -1.2859805 1.2859805 0 0 Z " fill="#441D10" transform="translate(393,574)"/>
<path d="M0 0 C1.0725 0.309375 2.145 0.61875 3.25 0.9375 C7.48708983 2.13800878 11.67773182 3.15955897 16 4 C16 4.66 16 5.32 16 6 C12.02623171 7.56393356 9.18622097 6.36145292 5.25 5.0625 C4.07953125 4.68222656 2.9090625 4.30195312 1.703125 3.91015625 C0.81109375 3.60980469 -0.0809375 3.30945313 -1 3 C-0.67 2.01 -0.34 1.02 0 0 Z " fill="#451D0F" transform="translate(306,562)"/>
<path d="M0 0 C0.99 0 1.98 0 3 0 C3.86603643 3.75513397 4.16336696 7.27336758 4.1875 11.125 C4.20167969 12.15882813 4.21585938 13.19265625 4.23046875 14.2578125 C4 17 4 17 2 20 C0.86267574 16.59598052 1.16010043 14.22543336 1.9375 10.75 C2.22947266 9.41195312 2.22947266 9.41195312 2.52734375 8.046875 C2.68332031 7.37140625 2.83929687 6.6959375 3 6 C2.01 6.33 1.02 6.66 0 7 C0 4.69 0 2.38 0 0 Z " fill="#512715" transform="translate(740,508)"/>
<path d="M0 0 C0 0.66 0 1.32 0 2 C-5.57067277 3.59162079 -10.21101581 4.20674944 -16 4 C-16 3.34 -16 2.68 -16 2 C-13.04335481 0.5216774 -10.25770263 0.93967217 -7 1 C-7 0.67 -7 0.34 -7 0 C-2.25 -1.125 -2.25 -1.125 0 0 Z " fill="#20548F" transform="translate(284,564)"/>
<path d="M0 0 C1.23922223 3.71766668 0.57018942 5.43889537 -0.4375 9.1875 C-0.72496094 10.27417969 -1.01242187 11.36085938 -1.30859375 12.48046875 C-1.65083984 13.72763672 -1.65083984 13.72763672 -2 15 C-3.53690745 12.58959839 -4.09752136 11.49917715 -3.5390625 8.640625 C-3.23742187 7.85171875 -2.93578125 7.0628125 -2.625 6.25 C-2.18027344 5.05117188 -2.18027344 5.05117188 -1.7265625 3.828125 C-1.36691406 2.92320312 -1.36691406 2.92320312 -1 2 C-3.64 2 -6.28 2 -9 2 C-5.86501708 0.14223235 -3.62528568 -0.20140476 0 0 Z " fill="#2B5587" transform="translate(295,540)"/>
<path d="M0 0 C0.99 0.33 1.98 0.66 3 1 C2.34 1.66 1.68 2.32 1 3 C0.61116804 5.82673737 0.61116804 5.82673737 0.5 9 C0.22222222 14.77777778 0.22222222 14.77777778 -2 17 C-3.80319789 13.39360421 -3.47193943 9.57221682 -2.328125 5.76171875 C-1.59815505 3.82316649 -0.80383467 1.90910734 0 0 Z " fill="#3E1F14" transform="translate(299,540)"/>
<path d="M0 0 C0.33 0 0.66 0 1 0 C1.33 1.65 1.66 3.3 2 5 C2.33 5 2.66 5 3 5 C3.33 8.96 3.66 12.92 4 17 C3.34 17 2.68 17 2 17 C1.67 17.66 1.34 18.32 1 19 C-0.00926479 14.84373632 -0.10239579 10.95634906 -0.0625 6.6875 C-0.05347656 5.43324219 -0.04445313 4.17898438 -0.03515625 2.88671875 C-0.01775391 1.45779297 -0.01775391 1.45779297 0 0 Z " fill="#3A1C0F" transform="translate(772,496)"/>
<path d="M0 0 C0.78503906 -0.00257813 1.57007813 -0.00515625 2.37890625 -0.0078125 C4.4375 0.125 4.4375 0.125 6.4375 1.125 C6.4375 2.115 6.4375 3.105 6.4375 4.125 C-0.4925 3.63 -0.4925 3.63 -7.5625 3.125 C-7.5625 2.465 -7.5625 1.805 -7.5625 1.125 C-4.73533905 0.18261302 -2.93073877 -0.00965647 0 0 Z " fill="#451E14" transform="translate(844.5625,480.875)"/>
<path d="M0 0 C2.10494301 0.08708038 4.20902142 0.19525693 6.3125 0.3125 C8.07013672 0.39951172 8.07013672 0.39951172 9.86328125 0.48828125 C13 1 13 1 16 4 C10.72 3.67 5.44 3.34 0 3 C0 2.01 0 1.02 0 0 Z " fill="#3D1A0C" transform="translate(618,594)"/>
<path d="M0 0 C4.95696581 1.23924145 7.11658466 2.78577758 10 7 C9.01 7.495 9.01 7.495 8 8 C8 10.31 8 12.62 8 15 C7.67 15 7.34 15 7 15 C7.020625 14.39671875 7.04125 13.7934375 7.0625 13.171875 C6.9953631 10.57031996 6.82257933 8.47626214 6 6 C3.54762069 4.02461625 0.97950412 2.97054462 -2 2 C-1.34 1.34 -0.68 0.68 0 0 Z " fill="#401E14" transform="translate(384,417)"/>
<path d="M0 0 C0.99 0.33 1.98 0.66 3 1 C2.67 1.66 2.34 2.32 2 3 C-1.0625 3.625 -1.0625 3.625 -4 4 C-4 4.33 -4 4.66 -4 5 C-6.31 4.67 -8.62 4.34 -11 4 C-11 3.01 -11 2.02 -11 1 C-10.06027344 1.01740234 -10.06027344 1.01740234 -9.1015625 1.03515625 C-7.87566406 1.04869141 -7.87566406 1.04869141 -6.625 1.0625 C-5.40683594 1.07990234 -5.40683594 1.07990234 -4.1640625 1.09765625 C-1.95062858 1.14466334 -1.95062858 1.14466334 0 0 Z " fill="#411B0F" transform="translate(433,552)"/>
<path d="M0 0 C0.33 0.99 0.66 1.98 1 3 C-3.95 3.66 -8.9 4.32 -14 5 C-14 4.34 -14 3.68 -14 3 C-4.58997722 -0.44419134 -4.58997722 -0.44419134 0 0 Z " fill="#42160D" transform="translate(454,480)"/>
<path d="M0 0 C0.66 0.66 1.32 1.32 2 2 C-0.88415883 3.44207941 -3.41721528 3.09394887 -6.625 3.0625 C-7.81351563 3.05347656 -9.00203125 3.04445313 -10.2265625 3.03515625 C-11.14179687 3.02355469 -12.05703125 3.01195312 -13 3 C-8.43831469 -0.61788835 -5.73379002 -1.34195086 0 0 Z " fill="#37130B" transform="translate(613,482)"/>
<path d="M0 0 C0.33 0.99 0.66 1.98 1 3 C1.66 3.33 2.32 3.66 3 4 C2.34 6.97 1.68 9.94 1 13 C0.34 13 -0.32 13 -1 13 C-1.33 13.66 -1.66 14.32 -2 15 C-1.34 10.05 -0.68 5.1 0 0 Z " fill="#3F1F13" transform="translate(545,501)"/>
<path d="M0 0 C0.99 0.495 0.99 0.495 2 1 C2 1.66 2 2.32 2 3 C2.87398438 3.38285156 2.87398438 3.38285156 3.765625 3.7734375 C6.21388223 5.11741087 7.81743248 6.61810296 9.75 8.625 C10.36359375 9.25664062 10.9771875 9.88828125 11.609375 10.5390625 C12.29773438 11.26222656 12.29773438 11.26222656 13 12 C8.90785226 12 7.80806297 10.39777126 4.8125 7.6875 C3.91144531 6.88699219 3.01039063 6.08648437 2.08203125 5.26171875 C0 3 0 3 0 0 Z " fill="#3D1A0B" transform="translate(365,480)"/>
<path d="M0 0 C2.12046792 3.53411321 2.53199289 6.94393835 3 11 C2.34 11 1.68 11 1 11 C0.67 11.99 0.34 12.98 0 14 C-0.19456705 12.04235617 -0.38044247 10.08384679 -0.5625 8.125 C-0.66691406 7.03445313 -0.77132812 5.94390625 -0.87890625 4.8203125 C-1 2 -1 2 0 0 Z " fill="#412016" transform="translate(815,516)"/>
<path d="M0 0 C0.886875 0.103125 1.77375 0.20625 2.6875 0.3125 C-0.50918988 2.9611859 -3.70736597 5.25242341 -7.3125 7.3125 C-7.6425 6.6525 -7.9725 5.9925 -8.3125 5.3125 C-4.12788462 0.38942308 -4.12788462 0.38942308 0 0 Z " fill="#401F15" transform="translate(602.3125,484.6875)"/>
<path d="M0 0 C0 0.99 0 1.98 0 3 C-0.68707031 3.13277344 -1.37414062 3.26554687 -2.08203125 3.40234375 C-3.43361328 3.66724609 -3.43361328 3.66724609 -4.8125 3.9375 C-6.15248047 4.19853516 -6.15248047 4.19853516 -7.51953125 4.46484375 C-10.11397171 4.97741153 -10.11397171 4.97741153 -13 6 C-13 5.34 -13 4.68 -13 4 C-11.2097939 3.32942113 -9.41778511 2.6636531 -7.625 2 C-6.62726562 1.62875 -5.62953125 1.2575 -4.6015625 0.875 C-2 0 -2 0 0 0 Z " fill="#37180E" transform="translate(706,481)"/>
<path d="M0 0 C0.99 0.495 0.99 0.495 2 1 C2.31241371 3.54941373 2.51303421 6.00361513 2.625 8.5625 C2.66367187 9.27341797 2.70234375 9.98433594 2.7421875 10.71679688 C2.83671783 12.47742425 2.91945817 14.23867728 3 16 C2.01 15.67 1.02 15.34 0 15 C0 10.05 0 5.1 0 0 Z " fill="#3E1C13" transform="translate(445,509)"/>
<path d="M0 0 C0.66 0.66 1.32 1.32 2 2 C0 4 0 4 -3.625 4.125 C-4.73875 4.08375 -5.8525 4.0425 -7 4 C-7.33 3.01 -7.66 2.02 -8 1 C-5.23749964 -0.38125018 -3.05268901 -0.19079306 0 0 Z " fill="#3F1D11" transform="translate(606,504)"/>
<path d="M0 0 C0 0.99 0 1.98 0 3 C-4.455 3.495 -4.455 3.495 -9 4 C-9 4.66 -9 5.32 -9 6 C-9.66 6 -10.32 6 -11 6 C-11 5.01 -11 4.02 -11 3 C-9.73160474 2.49384702 -8.46016898 1.99530901 -7.1875 1.5 C-6.12595703 1.08234375 -6.12595703 1.08234375 -5.04296875 0.65625 C-3 0 -3 0 0 0 Z " fill="#37190F" transform="translate(571,481)"/>
<path d="M0 0 C0.33 0.99 0.66 1.98 1 3 C-3.455 3.495 -3.455 3.495 -8 4 C-8.33 4.99 -8.66 5.98 -9 7 C-9.33 6.01 -9.66 5.02 -10 4 C-8.71086513 3.32845067 -7.41859796 2.66291141 -6.125 2 C-5.40570312 1.62875 -4.68640625 1.2575 -3.9453125 0.875 C-2 0 -2 0 0 0 Z " fill="#43170D" transform="translate(627,481)"/>
<path d="M0 0 C0.66 0 1.32 0 2 0 C0.52307692 5.66153846 0.52307692 5.66153846 -2.125 7.375 C-3.053125 7.684375 -3.053125 7.684375 -4 8 C-4.33 7.34 -4.66 6.68 -5 6 C-4.34 6 -3.68 6 -3 6 C-2.690625 5.195625 -2.38125 4.39125 -2.0625 3.5625 C-1 1 -1 1 0 0 Z " fill="#275587" transform="translate(290,555)"/>
<path d="M0 0 C0.99 0.66 1.98 1.32 3 2 C1.3767313 2.6708712 -0.24867578 3.33657029 -1.875 4 C-3.23238281 4.556875 -3.23238281 4.556875 -4.6171875 5.125 C-7 6 -7 6 -9 6 C-9 5.34 -9 4.68 -9 4 C-7.57086153 3.27494442 -6.13129342 2.57041565 -4.6875 1.875 C-3.88699219 1.48054688 -3.08648437 1.08609375 -2.26171875 0.6796875 C-1.51535156 0.45539063 -0.76898438 0.23109375 0 0 Z " fill="#34140B" transform="translate(511,482)"/>
<path d="M0 0 C0.66 0.33 1.32 0.66 2 1 C2 1.66 2 2.32 2 3 C1.01 3.495 1.01 3.495 0 4 C-0.65555119 6.52733235 -0.65555119 6.52733235 -1 9 C-1.66 9 -2.32 9 -3 9 C-3.1875 5.625 -3.1875 5.625 -3 2 C-2.01 1.34 -1.02 0.68 0 0 Z " fill="#16478C" transform="translate(232,419)"/>
<path d="M0 0 C3.63 0.33 7.26 0.66 11 1 C10.01 1.495 10.01 1.495 9 2 C8.67 2.66 8.34 3.32 8 4 C5.36 3.34 2.72 2.68 0 2 C0 1.34 0 0.68 0 0 Z " fill="#3A1A10" transform="translate(646,615)"/>
<path d="M0 0 C2.64 0 5.28 0 8 0 C7.67 0.99 7.34 1.98 7 3 C4.69 3 2.38 3 0 3 C0 2.01 0 1.02 0 0 Z " fill="#3D1C12" transform="translate(339,546)"/>
<path d="M0 0 C-3.75 2 -3.75 2 -6 2 C-6 2.66 -6 3.32 -6 4 C-7.65 4.66 -9.3 5.32 -11 6 C-11 5.01 -11 4.02 -11 3 C-7.14243493 0.84694043 -4.44870215 -0.39253254 0 0 Z " fill="#3B140C" transform="translate(317,529)"/>
<path d="M0 0 C0.33 0 0.66 0 1 0 C1.05422947 1.4370809 1.09289723 2.87475462 1.125 4.3125 C1.14820313 5.11300781 1.17140625 5.91351562 1.1953125 6.73828125 C1 9 1 9 -1 12 C-2.45606519 7.47907032 -1.27032841 4.48351204 0 0 Z " fill="#533628" transform="translate(743,516)"/>
<path d="M0 0 C0.66 0 1.32 0 2 0 C0.92289822 4.30840713 -0.03947516 7.63576723 -3 11 C-2.25 3.375 -2.25 3.375 0 0 Z " fill="#492B20" transform="translate(588,499)"/>
<path d="M0 0 C0 0.66 0 1.32 0 2 C-2.97 2 -5.94 2 -9 2 C-9 1.34 -9 0.68 -9 0 C-5.52176885 -1.15941038 -3.54104422 -0.70820884 0 0 Z " fill="#31150D" transform="translate(671,482)"/>
<path d="M0 0 C0.66 0.99 1.32 1.98 2 3 C0.625 4.5 0.625 4.5 -1 6 C-1.66 6 -2.32 6 -3 6 C-3.33 6.66 -3.66 7.32 -4 8 C-4 4.09161134 -2.49432124 2.88405893 0 0 Z " fill="#4A2A20" transform="translate(305,533)"/>
<path d="M0 0 C0.66 0.66 1.32 1.32 2 2 C1.9765625 4.3828125 1.9765625 4.3828125 1.625 7.125 C1.51414063 8.03507813 1.40328125 8.94515625 1.2890625 9.8828125 C1.19367188 10.58148437 1.09828125 11.28015625 1 12 C0.67 12 0.34 12 0 12 C-1.28571429 3.42857143 -1.28571429 3.42857143 0 0 Z " fill="#205196" transform="translate(249,523)"/>
<path d="M0 0 C0.33 0 0.66 0 1 0 C1.66 3.96 2.32 7.92 3 12 C2.01 12 1.02 12 0 12 C0 8.04 0 4.08 0 0 Z " fill="#3C1A0C" transform="translate(640,499)"/>
<path d="M0 0 C0.66 0.33 1.32 0.66 2 1 C-0.75 5.875 -0.75 5.875 -3 7 C-3.66 6.34 -4.32 5.68 -5 5 C-3.35 3.35 -1.7 1.7 0 0 Z " fill="#3D1D14" transform="translate(499,488)"/>
<path d="M0 0 C0.66 1.32 1.32 2.64 2 4 C0.625 6 0.625 6 -1 8 C-1.66 8 -2.32 8 -3 8 C-1.125 2.25 -1.125 2.25 0 0 Z " fill="#441910" transform="translate(516,533)"/>
<path d="M0 0 C0.66 0.33 1.32 0.66 2 1 C-0.24529435 4.36794152 -1.31592186 4.71057265 -5 6 C-5.99 6.495 -5.99 6.495 -7 7 C-5.55609075 3.19333016 -3.65047197 1.73397418 0 0 Z " fill="#431E15" transform="translate(660,483)"/>
<path d="M0 0 C0.66 0 1.32 0 2 0 C4.56687367 3.8503105 3.83288724 5.58569763 3 10 C0.70366176 6.55549263 0.45983515 4.06187717 0 0 Z " fill="#3A1D11" transform="translate(473,548)"/>
<path d="M0 0 C0.66 0.33 1.32 0.66 2 1 C2 3.31 2 5.62 2 8 C1.34 8 0.68 8 0 8 C-0.79953138 4.71303767 -1.09658936 3.28976808 0 0 Z " fill="#30649B" transform="translate(250,517)"/>
<path d="M0 0 C2.4375 1.25 2.4375 1.25 5 3 C5.33 4.32 5.66 5.64 6 7 C3.69 5.35 1.38 3.7 -1 2 C-0.67 1.34 -0.34 0.68 0 0 Z " fill="#38190F" transform="translate(459,482)"/>
<path d="M0 0 C3.3 0 6.6 0 10 0 C10 0.33 10 0.66 10 1 C6.7 1.66 3.4 2.32 0 3 C0 2.01 0 1.02 0 0 Z " fill="#411F14" transform="translate(475,599)"/>
<path d="M0 0 C0.66 0.33 1.32 0.66 2 1 C2 2.98 2 4.96 2 7 C1.01 6.67 0.02 6.34 -1 6 C-0.67 4.02 -0.34 2.04 0 0 Z " fill="#351B10" transform="translate(552,551)"/>
<path d="M0 0 C0.66 0 1.32 0 2 0 C3.7143618 1.95927063 5.38405168 3.95880212 7 6 C5.68 6 4.36 6 3 6 C3 5.34 3 4.68 3 4 C2.34 4 1.68 4 1 4 C0.67 2.68 0.34 1.36 0 0 Z " fill="#3B1B11" transform="translate(322,535)"/>
</svg>
