<?xml version="1.0"?>
<svg width="1080" height="1080" xmlns="http://www.w3.org/2000/svg" xmlns:svg="http://www.w3.org/2000/svg" version="1.1">
 <g class="layer">
  <title>Layer 1</title>
  <path d="m366.31,413.63c0.93,0 1.85,0 2.8,0c9.05,0.17 17.25,1.74 23.89,8.38c2.19,4.38 1.26,9.14 -0.13,13.62c-2.14,3.85 -4.12,6.97 -7.87,9.38c-4.04,0.7 -6.31,0.97 -9.86,-1.07c-1.18,-0.88 -2.35,-1.77 -3.51,-2.69c-5.14,-3.92 -11.46,-3.84 -17.63,-3.24c-4.52,0.9 -7.21,1.93 -10,5.68c-1.65,5.46 -1.85,9.96 0.37,15.19c4.74,8.51 13.13,14.78 20.79,20.53c0.61,0.53 1.21,1.05 1.84,1.6c0,0.65 0,1.31 0,2c0.58,0.25 1.16,0.51 1.76,0.77c9.57,5.22 16.09,16.11 19.24,26.23c2.93,12.78 -0.44,24.99 -7.21,35.94c-8.54,12.51 -22.5,20.65 -37.18,23.58c-14.7,1.92 -30.05,1.22 -42.61,-7.52c-3.68,-3.2 -4.87,-5.26 -5.25,-10.19c0.55,-8.43 4.12,-14.09 10.25,-19.81c3.37,-2.33 5.3,-2.95 9.37,-3.25c4.7,1.61 6.49,4.2 9.6,7.95c5.04,5.71 10.8,8.08 18.27,9.12c4.24,0.27 8.02,0.4 11.76,-1.82c3.43,-5.14 3.78,-12.02 3,-18c-3.07,-10.11 -10.38,-16.57 -18.52,-22.78c-12.67,-9.66 -25.74,-20.66 -28.48,-37.22c-0.87,-12.71 1.3,-21.86 9,-32c0.6,-0.82 1.19,-1.64 1.81,-2.48c6.73,-7.76 16.41,-12.83 26.19,-15.52c1.82,-0.54 1.82,-0.54 3.68,-1.08c4.86,-1.19 9.64,-1.31 14.63,-1.3z" fill="#ffffff" id="svg_1" transform="matrix(1 0 0 1 0 0)"/>
  <path d="m424.71,480.07c2.01,3.02 1.33,5.58 0.97,9.12c-0.12,1.27 -0.24,2.54 -0.36,3.85c-0.11,0.98 -0.21,1.95 -0.32,2.96c0.38,-0.51 0.77,-1.02 1.17,-1.54c5.91,-7.26 13.39,-12.92 22.83,-14.46c6.07,-0.08 10.23,1.01 15,5c8.98,9.76 8.62,20.93 8.17,33.42c-1.09,16.09 -8.31,31.67 -20.17,42.58c-6.85,5.85 -14.81,9.02 -23.89,8.99c-3.58,-0.32 -6.7,-0.85 -10.11,-1.99c-0.47,3.46 -0.92,6.92 -1.38,10.37c-0.14,1.05 -0.28,2.09 -0.42,3.16c-0.74,5.65 -1.41,11.3 -1.98,16.97c-1.83,18.21 -1.83,18.21 -6.54,24.69c-5.03,3.45 -11.94,2.51 -17.68,1.81c-4.41,-1.21 -7.76,-2.86 -11.13,-5.94c-1.19,-2.81 -0.99,-4.24 0.13,-7.06c0.89,-0.43 0.89,-0.43 1.81,-0.88c3.49,-1.79 4.78,-4.61 6.19,-8.12c2.75,-10.18 4.03,-20.65 5.3,-31.1c0.32,-2.57 0.65,-5.13 0.98,-7.7c2.4,-19.09 2.89,-38.16 3.28,-57.39c0.04,-2.03 0.08,-4.06 0.13,-6.1c0.1,-4.9 0.21,-9.81 0.31,-14.71c1.56,-0.81 3.13,-1.62 4.7,-2.42c0.88,-0.45 1.75,-0.9 2.65,-1.36c5.48,-2.53 14.87,-5.57 20.36,-2.15zm9.91,23.12c-12.34,11.69 -15.02,28.19 -15.55,44.36c-0.02,1.14 -0.05,2.28 -0.07,3.45c4.3,2.77 6.81,3.64 12,3c6.78,-3.12 9.07,-8.87 12.07,-15.3c1.18,-3.44 1.64,-6.86 2.05,-10.45c0.12,-1.07 0.12,-1.07 0.25,-2.16c1,-9.04 1.01,-15.57 -2.37,-24.09c-3.6,-1.53 -5.41,-1.11 -8.38,1.19z" fill="#ffffff" id="svg_2" transform="matrix(1 0 0 1 0 0)"/>
  <path d="m261.1,414.98c2.97,3.17 2.47,6.67 2.37,10.79c-0.01,0.92 -0.02,1.84 -0.03,2.78c-0.33,12.77 -2.12,25.42 -3.8,38.06c-0.37,2.81 -0.73,5.63 -1.09,8.44c-2.95,23.02 -6.13,46 -9.55,68.95c12.81,-0.27 25.34,-0.56 37.89,-3.38c2.81,-0.56 5.25,-0.74 8.11,-0.62c1.88,5.66 -0.67,12.21 -3.18,17.46c-3.06,5.1 -5.51,7.89 -11.37,9.54c-16.88,4.08 -45.44,8.09 -61.45,0c-3.59,-3.9 -3.35,-6.84 -3.21,-11.92c0.35,-5.21 1.05,-10.34 1.81,-15.49c0.17,-1.17 0.34,-2.33 0.51,-3.53c0.36,-2.48 0.71,-4.95 1.08,-7.42c0.93,-6.42 1.85,-12.84 2.76,-19.27c0.27,-1.88 0.27,-1.88 0.55,-3.8c1.38,-9.72 2.71,-19.45 3.93,-29.19c0.15,-1.18 0.3,-2.36 0.46,-3.57c1.62,-13.08 2.26,-26.07 2.17,-39.24c-0.01,-1.22 -0.01,-2.44 -0.02,-3.7c-0.01,-2.96 -0.02,-5.91 -0.04,-8.87c8.89,-4.68 22.16,-10.63 32.1,-6.02z" fill="#ffffff" id="svg_3"/>
  <path d="m772.13,482.17c2.51,2.45 2.43,3.89 2.56,7.37c0.06,1.12 0.11,2.25 0.17,3.41c0.07,1.82 0.07,1.82 0.14,3.67c0.68,12.89 2.35,25.38 4.67,38.07c0.33,2.31 0.33,2.31 0.33,6.31c0.66,0 1.32,0 2,0c0.17,-0.6 0.34,-1.19 0.52,-1.8c1.66,-5.71 3.55,-11.29 5.61,-16.86c1.46,-3.94 2.01,-6.98 2.08,-11.18c0.04,-1.72 0.04,-1.72 0.09,-3.47c0.05,-2.42 0.09,-4.83 0.13,-7.25c0.03,-1.14 0.06,-2.29 0.09,-3.47c0.02,-1.05 0.04,-2.1 0.06,-3.18c0.47,-3.14 1.25,-4.51 3.42,-6.79c5.36,-2.51 11.13,-3.61 17,-3c2.81,2.81 2.53,4.99 2.93,8.93c0.16,1.44 0.31,2.88 0.47,4.32c0.07,0.76 0.15,1.51 0.23,2.29c2.12,22.03 2.12,22.03 7.37,43.46c10.6,-18.59 10.77,-35.92 9,-57c6.13,-4.22 10.6,-5.94 18,-5c5.64,2.92 5.64,2.92 7,7c2.6,25.73 -10.4,52.5 -26.29,72.06c-4.96,5.62 -9.08,9.09 -16.71,9.94c-5.11,-1.41 -7.3,-4.2 -9.84,-8.62c-2.1,-4.33 -3.65,-8.82 -5.16,-13.38c-0.37,-1.1 -0.73,-2.21 -1.11,-3.34c-0.29,-0.88 -0.59,-1.76 -0.89,-2.66c-0.27,0.74 -0.54,1.47 -0.81,2.23c-3.67,9.49 -8.57,20.16 -18.19,24.77c-3.56,1.11 -5.46,1.14 -9.06,0.18c-4.32,-3.21 -5.87,-7.31 -7.94,-12.18c-0.47,-0.98 -0.94,-1.97 -1.43,-2.98c-2.41,-5.67 -3.62,-11.73 -5.01,-17.71c-0.15,-0.65 -0.3,-1.3 -0.46,-1.97c-7.38,-31.81 -7.38,-31.81 -7.1,-47.34c19.76,-8.34 19.76,-8.34 26.13,-4.83z" fill="#ffffff" id="svg_4" transform="matrix(1 0 0 1 0 0)"/>
  <path d="m580.2,482.91c3.34,2.98 3.68,5.95 4.04,10.28c0.05,0.86 0.09,1.73 0.14,2.62c0.1,1.32 0.1,1.32 0.21,2.68c0.16,2.16 0.29,4.34 0.41,6.51c0.3,-0.63 0.59,-1.26 0.89,-1.91c4.33,-9.04 8.67,-16.8 18.11,-21.09c3.63,-1.07 3.63,-1.07 7,-1c3.44,1.93 3.44,1.93 6,4c1.1,-0.66 2.19,-1.32 3.32,-2c5.14,-2.57 10.04,-2.89 15.68,-2c3,1.68 4.56,2.59 5.6,5.89c0.66,3.42 0.78,6.89 0.97,10.36c0.04,0.74 0.08,1.49 0.13,2.25c0.1,1.83 0.2,3.67 0.3,5.5c0.37,-0.79 0.73,-1.57 1.11,-2.38c4.64,-9.72 8.48,-16.25 18.5,-20.81c3.25,-1.11 5.2,-1.11 8.39,0.19c2.87,2.4 4.81,4.3 5.24,8.1c0.18,6.1 -0.51,10.91 -4.24,15.9c-1.83,1.76 -1.83,1.76 -4,3c-2.36,-0.11 -2.36,-0.11 -4.87,-0.63c-3.6,-0.51 -3.6,-0.51 -7,0.45c-11.6,9.21 -11.68,29.49 -13.25,43.05c-0.16,1.46 -0.32,2.92 -0.48,4.38c-0.12,1.04 -0.12,1.04 -0.24,2.1c-0.21,1.91 -0.42,3.82 -0.62,5.74c-0.54,2.91 -0.54,2.91 -2.54,4.91c-8.1,0.76 -15.61,0.62 -23,-3c-1.14,-5.76 -0.69,-10.45 0.32,-16.19c2.24,-13.95 3.84,-27.79 3.93,-41.94c0.02,-1.29 0.02,-1.29 0.03,-2.6c0.18,-4.62 0.18,-4.62 -2.28,-8.27c-0.24,0.61 -0.48,1.23 -0.73,1.86c-0.33,0.81 -0.67,1.62 -1.02,2.45c-0.32,0.8 -0.64,1.6 -0.98,2.42c-1.47,2.63 -2.62,3.83 -5.27,5.27c-2.58,-0.04 -4.92,-0.5 -7.46,-0.97c-3.39,-0.04 -4.87,0.92 -7.54,2.97c-10.41,13.06 -10.92,35.13 -13.1,51.07c-0.8,5.83 -0.8,5.83 -1.9,6.93c-8.03,0.57 -15.63,0.53 -23,-3c-1,-1 -1,-1 -1.18,-4.72c0.07,-6.36 1.16,-12.57 2.12,-18.85c1.38,-9.55 2.53,-19.04 3,-28.68c0.09,-1.44 0.09,-1.44 0.18,-2.9c0.23,-6.24 -0.83,-11.07 -3.12,-16.85c-1,-3.25 -1,-3.25 -1,-6c5.46,-7.28 15.34,-9.8 23.2,-5.09z" fill="#ffffff" id="svg_5" transform="matrix(1 0 0 1 0 0)"/>
  <path d="m521.31,480.69c1.94,-0.06 1.94,-0.06 3.93,-0.11c5.66,0.64 8.61,3.25 12.51,7.24c4.17,2.8 6.46,2.34 11.27,1.58c0.65,-0.13 1.31,-0.26 1.98,-0.4c1.21,3.64 0.36,4.43 -1.17,7.74c-1.8,4.88 -2.25,10.13 -2.96,15.26c-0.17,1.21 -0.34,2.41 -0.51,3.65c-2.76,16.31 -2.76,16.31 -0.36,32.35c2.46,2.47 4.7,3 8,4c0.64,4.26 -0.11,6.68 -2.5,10.13c-3.73,4.57 -7.75,7.19 -13.58,8.25c-5.13,0.31 -8.11,-1.08 -11.92,-4.38c-3.89,-4.64 -5.02,-9.17 -6,-15c-0.5,0.65 -1,1.31 -1.51,1.98c-12.3,15.82 -12.3,15.82 -22.65,17.34c-5.74,0.3 -10.15,-0.99 -14.84,-4.32c-6.07,-5.62 -7.62,-12.06 -8.24,-20.05c-0.44,-19.11 5.65,-36.9 18.62,-51.17c8.24,-8.44 18.04,-13.87 29.93,-14.09zm-8.31,13.31c-11.35,11.99 -14.24,29.03 -14,45c0.26,5.07 0.26,5.07 3,9c2.32,0.76 2.32,0.76 5,0c10.38,-9.49 15.38,-26.01 16.16,-39.83c-0.36,-5.16 -2.07,-9.05 -5.16,-13.17c-2.62,-1.04 -2.62,-1.04 -5,-1z" fill="#ffffff" id="svg_6" transform="matrix(1 0 0 1 0 0)"/>
  <path d="m727.89,484.46c8.93,6.52 14.05,14.95 15.83,25.93c1.79,16.65 -1.74,31.59 -11.6,45.21c-6.13,7.42 -14.33,13.34 -24.12,14.4c-10.45,0.8 -18.4,-0.19 -27.13,-6.13c-0.61,-0.61 -1.23,-1.23 -1.87,-1.87c0,-0.66 0,-1.32 0,-2c-0.99,-0.33 -1.98,-0.66 -3,-1c-1.57,-2.77 -1.57,-2.77 -3.13,-6.25c-0.51,-1.14 -1.03,-2.28 -1.57,-3.45c-5.6,-14.17 -2.47,-31.85 3.26,-45.55c6.22,-10.89 15.45,-18.44 27.31,-22.37c8.8,-1.57 18.23,-1.6 26.02,3.08zm-27.89,16.54c-7.01,10.65 -6.18,27.41 -4.5,39.64c0.98,4.55 2.09,7.77 4.75,11.61c3.64,2.31 5.52,2.58 9.75,1.75c6.44,-5.56 7.9,-13.86 9,-22c1.13,-18.09 1.13,-18.09 -6,-34c-5.86,-3.9 -8.72,-2.18 -13,3z" fill="#ffffff" id="svg_7" transform="matrix(1 0 0 1 0 0)"/>
  <path d="m561.76,591.68c2.08,0.01 4.16,0.01 6.24,0.01c30.1,0.05 59.31,2.11 89,7.31c0.98,0.16 1.96,0.32 2.98,0.49c1.45,0.25 1.45,0.25 2.92,0.5c1.29,0.22 1.29,0.22 2.61,0.44c3.89,0.89 6.73,1.68 9.36,4.76c1.52,3.79 1.24,5.9 0.13,9.81c-1.88,2.94 -1.88,2.94 -5,5c-8.26,1.77 -17.31,-1.14 -25.4,-2.85c-9.81,-2.06 -19.71,-3.6 -29.6,-5.15c-0.7,-0.11 -1.4,-0.22 -2.12,-0.34c-22.85,-3.55 -45.9,-4.04 -68.97,-3.98c-2.26,0.01 -4.51,0.01 -6.76,0.01c-28.2,0.04 -56.12,0.65 -83.83,6.54c-4.2,0.83 -8.04,1.06 -12.32,0.77c-0.66,-0.66 -1.32,-1.32 -2,-2c0.18,-2.5 0.18,-2.5 1,-5c2.93,-1.95 4.76,-2.59 8.13,-3.4c1.02,-0.25 2.05,-0.5 3.1,-0.76c1.1,-0.26 2.2,-0.51 3.33,-0.78c1.13,-0.27 2.26,-0.53 3.43,-0.81c9.29,-2.16 18.56,-3.92 28.01,-5.25c0.86,-0.13 1.72,-0.25 2.61,-0.38c24.39,-3.49 48.52,-5.01 73.15,-4.94z" fill="#ffffff" id="svg_8" transform="matrix(1 0 0 1 0 0)"/>
  <path d="m446.19,606.38c0.93,0.21 1.86,0.41 2.81,0.63c0,2.64 0,5.28 0,8c-6.05,0.19 -6.05,0.19 -8,0c-0.66,-0.67 -1.32,-1.33 -2,-2c0.19,-2.5 0.19,-2.5 1,-5c3,-2.01 3,-2.01 6.19,-1.63z" fill="#ffffff" id="svg_9" transform="matrix(1 0 0 1 0 0)"/>
  <path d="m531.44,482.03c0.52,0.32 1.03,0.64 1.56,0.97c0,0.66 0,1.32 0,2c-0.88,-0.09 -1.76,-0.19 -2.67,-0.29c-10.12,-0.93 -18.78,-0.32 -28.33,3.29c0,-0.66 0,-1.32 0,-2c8.75,-4.56 19.77,-8.05 29.44,-3.97z" fill="#ffffff" id="svg_10" transform="matrix(1 0 0 1 0 0)"/>
  <path d="m230,438c0.33,0 0.66,0 1,0c1.39,12.22 0.44,23.82 -1,36c-2,-2 -2,-2 -2.15,-4.27c0.04,-0.93 0.09,-1.86 0.14,-2.82c0.07,-1.55 0.07,-1.55 0.14,-3.13c0.09,-1.62 0.09,-1.62 0.18,-3.28c0.08,-1.58 0.08,-1.58 0.15,-3.19c0.31,-6.46 0.82,-12.88 1.54,-19.31z" fill="#ffffff" id="svg_11" transform="matrix(1 0 0 1 0 0)"/>
  <path d="m250.44,566.88c1.24,0.01 1.24,0.01 2.51,0.03c2.01,0.02 4.03,0.06 6.05,0.1c0.33,0.65 0.66,1.32 1,2c-3.42,0.77 -6.57,1.11 -10.08,1.09c-0.93,0 -1.86,0 -2.82,-0.01c-0.96,-0.01 -1.92,-0.01 -2.91,-0.02c-1.47,-0.01 -1.47,-0.01 -2.97,-0.02c-2.4,-0.01 -4.81,-0.02 -7.22,-0.04c0,-0.34 0,-0.67 0,-1c5.63,-1.92 10.53,-2.25 16.44,-2.13z" fill="#ffffff" id="svg_12" transform="matrix(1 0 0 1 0 0)"/>
  <path d="m832,490c0.66,0 1.32,0 2,0c0.06,1 0.12,2 0.18,3.03c0.09,1.29 0.17,2.58 0.26,3.91c0.08,1.29 0.16,2.57 0.24,3.9c-0.03,3.02 -0.03,3.02 1.32,4.16c0.24,7.52 0.24,7.52 -1,10c-0.99,0 -1.98,0 -3,0c0.02,-1.47 0.02,-1.47 0.04,-2.96c0.08,-8.73 0.08,-8.73 -0.6,-17.41c-0.15,-1.2 -0.29,-2.4 -0.44,-3.63c0.33,-0.33 0.66,-0.66 1,-1z" fill="#ffffff" id="svg_13" transform="matrix(1 0 0 1 0 0)"/>
  <path d="m226,493c0.33,0 0.66,0 1,0c0.13,6.63 0.13,6.63 -1,10c0,0.87 0,1.73 0,2.63c0,0.78 0,1.56 0,2.37c-0.33,0.33 -0.66,0.66 -1,1c-0.04,2 -0.04,4 0,6c-0.66,0 -1.32,0 -2,0c-0.33,0.66 -0.66,1.32 -1,2c1.41,-21.41 1.41,-21.41 4,-24z" fill="#ffffff" id="svg_14" transform="matrix(1 0 0 1 0 0)"/>
  <path d="m425,480.19c1,1.81 1,1.81 0.69,4.5c-0.23,0.76 -0.46,1.53 -0.69,2.31c-0.66,0 -1.32,0 -2,0c0,-1.65 0,-3.3 0,-5c-6.44,0.5 -6.44,0.5 -13,1c0,-0.99 0,-1.98 0,-3c11.05,-2.15 11.05,-2.15 15,0.19z" fill="#ffffff" id="svg_15" transform="matrix(1 0 0 1 0 0)"/>
  <path d="m398,485c0.66,0 1.32,0 2,0c0,10.89 0,21.78 0,33c-0.33,0 -0.66,0 -1,0c-0.33,-6.93 -0.66,-13.86 -1,-21c-0.33,0 -0.66,0 -1,0c-0.03,-1.81 -0.05,-3.62 -0.06,-5.44c-0.01,-1.01 -0.03,-2.02 -0.04,-3.06c0.1,-2.5 0.1,-2.5 1.1,-3.5z" fill="#ffffff" id="svg_16" transform="matrix(1 0 0 1 0 0)"/>
  <path d="m471,501c0.33,0 0.66,0 1,0c0,5.61 0,11.22 0,17c-0.99,0.33 -1.98,0.66 -3,1c-0.05,-2.63 -0.09,-5.25 -0.13,-7.87c-0.01,-0.75 -0.03,-1.5 -0.05,-2.27c-0.01,-1.95 0.08,-3.91 0.18,-5.86c0.66,-0.66 1.32,-1.32 2,-2z" fill="#ffffff" id="svg_17" transform="matrix(1 0 0 1 0 0)"/>
  <path d="m770,481c2.38,2 2.38,2 4,4c-0.66,1.65 -1.32,3.3 -2,5c-0.33,0 -0.66,0 -1,0c0,-1.98 0,-3.96 0,-6c-4.62,0.33 -9.24,0.66 -14,1c2,-3 2,-3 4.25,-3.69c3.04,-0.34 5.7,-0.63 8.75,-0.31z" fill="#ffffff" id="svg_18" transform="matrix(1 0 0 1 0 0)"/>
  <path d="m576,606c7.08,-0.12 13.97,0.15 21,1c0,0.66 0,1.32 0,2c-7.08,0.12 -13.97,-0.15 -21,-1c0,-0.66 0,-1.32 0,-2z" fill="#ffffff" id="svg_19" transform="matrix(1 0 0 1 0 0)"/>
  <path d="m393,574c1.13,1.5 1.13,1.5 2,4c-0.4,1.85 -0.82,3.69 -1.36,5.5c-1.08,4.21 -1.52,8.53 -2.08,12.84c-0.28,1.32 -0.28,1.32 -0.56,2.66c-0.66,0.33 -1.32,0.66 -2,1c0.31,-2.85 0.62,-5.71 0.94,-8.56c0.08,-0.8 0.17,-1.6 0.26,-2.43c1.51,-13.72 1.51,-13.72 2.8,-15.01z" fill="#ffffff" id="svg_20" transform="matrix(1 0 0 1 0 0)"/>
  <path d="m306,562c1.07,0.31 2.15,0.62 3.25,0.94c4.24,1.2 8.43,2.22 12.75,3.06c0,0.66 0,1.32 0,2c-3.97,1.56 -6.81,0.36 -10.75,-0.94c-1.17,-0.38 -2.34,-0.76 -3.55,-1.15c-0.89,-0.3 -1.78,-0.6 -2.7,-0.91c0.33,-0.99 0.66,-1.98 1,-3z" fill="#ffffff" id="svg_21" transform="matrix(1 0 0 1 0 0)"/>
  <path d="m740,508c0.99,0 1.98,0 3,0c0.87,3.76 1.16,7.27 1.19,11.13c0.01,1.03 0.03,2.06 0.04,3.13c-0.23,2.74 -0.23,2.74 -2.23,5.74c-1.14,-3.4 -0.84,-5.77 -0.06,-9.25c0.29,-1.34 0.29,-1.34 0.59,-2.7c0.15,-0.68 0.31,-1.35 0.47,-2.05c-0.99,0.33 -1.98,0.66 -3,1c0,-2.31 0,-4.62 0,-7z" fill="#ffffff" id="svg_22" transform="matrix(1 0 0 1 0 0)"/>
  <path d="m284,564c0,0.66 0,1.32 0,2c-5.57,1.59 -10.21,2.21 -16,2c0,-0.66 0,-1.32 0,-2c2.96,-1.48 5.74,-1.06 9,-1c0,-0.33 0,-0.66 0,-1c4.75,-1.13 4.75,-1.13 7,0z" fill="#ffffff" id="svg_23" transform="matrix(1 0 0 1 0 0)"/>
  <path d="m295,540c1.24,3.72 0.57,5.44 -0.44,9.19c-0.28,1.08 -0.57,2.17 -0.87,3.29c-0.34,1.25 -0.34,1.25 -0.69,2.52c-1.54,-2.41 -2.1,-3.5 -1.54,-6.36c0.3,-0.79 0.6,-1.58 0.91,-2.39c0.45,-1.2 0.45,-1.2 0.9,-2.42c0.36,-0.91 0.36,-0.91 0.73,-1.83c-2.64,0 -5.28,0 -8,0c3.13,-1.86 5.37,-2.2 9,-2z" fill="#ffffff" id="svg_24" transform="matrix(1 0 0 1 0 0)"/>
  <path d="m299,540c0.99,0.33 1.98,0.66 3,1c-0.66,0.66 -1.32,1.32 -2,2c-0.39,2.83 -0.39,2.83 -0.5,6c-0.28,5.78 -0.28,5.78 -2.5,8c-1.8,-3.61 -1.47,-7.43 -0.33,-11.24c0.73,-1.94 1.53,-3.85 2.33,-5.76z" fill="#ffffff" id="svg_25" transform="matrix(1 0 0 1 0 0)"/>
  <path d="m772,496c0.33,0 0.66,0 1,0c0.33,1.65 0.66,3.3 1,5c0.33,0 0.66,0 1,0c0.33,3.96 0.66,7.92 1,12c-0.66,0 -1.32,0 -2,0c-0.33,0.66 -0.66,1.32 -1,2c-1.01,-4.16 -1.1,-8.04 -1.06,-12.31c0.01,-1.26 0.02,-2.51 0.02,-3.8c0.02,-1.43 0.02,-1.43 0.04,-2.89z" fill="#ffffff" id="svg_26" transform="matrix(1 0 0 1 0 0)"/>
  <path d="m844.56,480.88c0.79,0 1.57,-0.01 2.38,-0.01c2.06,0.14 2.06,0.14 4.06,1.14c0,0.99 0,1.97 0,3c-6.93,-0.5 -6.93,-0.5 -14,-1c0,-0.67 0,-1.32 0,-2c2.82,-0.95 4.63,-1.14 7.56,-1.13z" fill="#ffffff" id="svg_27" transform="matrix(1 0 0 1 0 0)"/>
  <path d="m618,594c2.1,0.09 4.21,0.2 6.31,0.31c1.76,0.09 1.76,0.09 3.55,0.18c3.14,0.51 3.14,0.51 6.14,3.51c-5.28,-0.33 -10.56,-0.66 -16,-1c0,-0.99 0,-1.98 0,-3z" fill="#ffffff" id="svg_28" transform="matrix(1 0 0 1 0 0)"/>
  <path d="m384,417c4.96,1.24 7.12,2.79 10,7c-0.99,0.5 -0.99,0.5 -2,1c0,2.31 0,4.62 0,7c-0.33,0 -0.66,0 -1,0c0.02,-0.6 0.04,-1.21 0.06,-1.83c-0.06,-2.6 -0.24,-4.69 -1.06,-7.17c-2.45,-1.98 -5.02,-3.03 -8,-4c0.66,-0.66 1.32,-1.32 2,-2z" fill="#ffffff" id="svg_29" transform="matrix(1 0 0 1 0 0)"/>
  <path d="m433,552c0.99,0.33 1.98,0.66 3,1c-0.33,0.66 -0.66,1.32 -1,2c-3.06,0.63 -3.06,0.63 -6,1c0,0.33 0,0.66 0,1c-2.31,-0.33 -4.62,-0.66 -7,-1c0,-0.99 0,-1.98 0,-3c0.94,0.02 0.94,0.02 1.9,0.04c1.22,0.01 1.22,0.01 2.47,0.02c1.22,0.02 1.22,0.02 2.47,0.04c2.21,0.04 2.21,0.04 4.16,-1.1z" fill="#ffffff" id="svg_30" transform="matrix(1 0 0 1 0 0)"/>
  <path d="m454,480c0.33,0.99 0.66,1.98 1,3c-4.95,0.66 -9.9,1.32 -15,2c0,-0.66 0,-1.32 0,-2c9.41,-3.44 9.41,-3.44 14,-3z" fill="#ffffff" id="svg_31" transform="matrix(1 0 0 1 0 0)"/>
  <path d="m613,482c0.66,0.66 1.32,1.32 2,2c-2.88,1.44 -5.42,1.09 -8.63,1.06c-1.18,-0.01 -2.37,-0.02 -3.6,-0.02c-0.91,-0.02 -1.83,-0.03 -2.77,-0.04c4.56,-3.62 7.27,-4.34 13,-3z" fill="#ffffff" id="svg_32" transform="matrix(1 0 0 1 0 0)"/>
  <path d="m545,501c0.33,0.99 0.66,1.98 1,3c0.66,0.33 1.32,0.66 2,1c-0.66,2.97 -1.32,5.94 -2,9c-0.66,0 -1.32,0 -2,0c-0.33,0.66 -0.66,1.32 -1,2c0.66,-4.95 1.32,-9.9 2,-15z" fill="#ffffff" id="svg_33" transform="matrix(1 0 0 1 0 0)"/>
  <path d="m365,480c0.99,0.49 0.99,0.49 2,1c0,0.66 0,1.32 0,2c0.87,0.38 0.87,0.38 1.77,0.77c2.44,1.35 4.05,2.85 5.98,4.86c0.61,0.63 1.23,1.26 1.86,1.91c0.69,0.72 0.69,0.72 1.39,1.46c-4.09,0 -5.19,-1.6 -8.19,-4.31c-0.9,-0.8 -1.8,-1.6 -2.73,-2.43c-2.08,-2.26 -2.08,-2.26 -2.08,-5.26z" fill="#ffffff" id="svg_34" transform="matrix(1 0 0 1 0 0)"/>
  <path d="m815,516c2.12,3.53 2.53,6.94 3,11c-0.66,0 -1.32,0 -2,0c-0.33,0.99 -0.66,1.98 -1,3c-0.19,-1.96 -0.38,-3.92 -0.56,-5.87c-0.11,-1.1 -0.21,-2.19 -0.32,-3.31c-0.12,-2.82 -0.12,-2.82 0.88,-4.82z" fill="#ffffff" id="svg_35" transform="matrix(1 0 0 1 0 0)"/>
  <path d="m602.31,484.69c0.89,0.1 1.77,0.21 2.69,0.31c-3.2,2.65 -6.4,4.94 -10,7c-0.33,-0.66 -0.66,-1.32 -1,-2c4.18,-4.92 4.18,-4.92 8.31,-5.31z" fill="#ffffff" id="svg_36" transform="matrix(1 0 0 1 0 0)"/>
  <path d="m706,481c0,0.99 0,1.98 0,3c-0.69,0.13 -1.37,0.27 -2.08,0.4c-1.35,0.27 -1.35,0.27 -2.73,0.54c-1.34,0.26 -1.34,0.26 -2.71,0.52c-2.59,0.52 -2.59,0.52 -5.48,1.54c0,-0.66 0,-1.32 0,-2c1.79,-0.67 3.58,-1.34 5.37,-2c1,-0.37 2,-0.74 3.03,-1.12c2.6,-0.88 2.6,-0.88 4.6,-0.88z" fill="#ffffff" id="svg_37" transform="matrix(1 0 0 1 0 0)"/>
  <path d="m445,509c0.99,0.49 0.99,0.49 2,1c0.31,2.55 0.51,5 0.63,7.56c0.03,0.71 0.07,1.42 0.11,2.16c0.1,1.76 0.18,3.52 0.26,5.28c-0.99,-0.33 -1.98,-0.66 -3,-1c0,-4.95 0,-9.9 0,-15z" fill="#ffffff" id="svg_38" transform="matrix(1 0 0 1 0 0)"/>
  <path d="m606,504c0.66,0.66 1.32,1.32 2,2c-2,2 -2,2 -5.63,2.13c-1.11,-0.05 -2.22,-0.09 -3.37,-0.13c-0.33,-0.99 -0.66,-1.98 -1,-3c2.76,-1.38 4.95,-1.19 8,-1z" fill="#ffffff" id="svg_39" transform="matrix(1 0 0 1 0 0)"/>
  <path d="m571,481c0,0.99 0,1.98 0,3c-4.46,0.5 -4.46,0.5 -9,1c0,0.66 0,1.32 0,2c-0.66,0 -1.32,0 -2,0c0,-0.99 0,-1.98 0,-3c1.27,-0.51 2.54,-1 3.81,-1.5c1.06,-0.42 1.06,-0.42 2.15,-0.84c2.04,-0.66 2.04,-0.66 5.04,-0.66z" fill="#ffffff" id="svg_40" transform="matrix(1 0 0 1 0 0)"/>
  <path d="m627,481c0.33,0.99 0.66,1.98 1,3c-4.46,0.5 -4.46,0.5 -9,1c-0.33,0.99 -0.66,1.98 -1,3c-0.33,-0.99 -0.66,-1.98 -1,-3c1.29,-0.67 2.58,-1.34 3.87,-2c0.72,-0.37 1.44,-0.74 2.18,-1.12c1.95,-0.88 1.95,-0.88 3.95,-0.88z" fill="#ffffff" id="svg_41" transform="matrix(1 0 0 1 0 0)"/>
  <path d="m290,555c0.66,0 1.32,0 2,0c-1.48,5.66 -1.48,5.66 -4.13,7.38c-0.92,0.3 -0.92,0.3 -1.87,0.62c-0.33,-0.66 -0.66,-1.32 -1,-2c0.66,0 1.32,0 2,0c0.31,-0.8 0.62,-1.61 0.94,-2.44c1.06,-2.56 1.06,-2.56 2.06,-3.56z" fill="#ffffff" id="svg_42" transform="matrix(1 0 0 1 0 0)"/>
  <path d="m511,482c0.99,0.66 1.98,1.32 3,2c-1.62,0.67 -3.25,1.34 -4.88,2c-1.35,0.56 -1.35,0.56 -2.74,1.13c-2.38,0.87 -2.38,0.87 -4.38,0.87c0,-0.66 0,-1.32 0,-2c1.43,-0.73 2.87,-1.43 4.31,-2.12c0.8,-0.4 1.6,-0.79 2.43,-1.2c0.74,-0.22 1.49,-0.45 2.26,-0.68z" fill="#ffffff" id="svg_43" transform="matrix(1 0 0 1 0 0)"/>
  <path d="m232,419c0.66,0.33 1.32,0.66 2,1c0,0.66 0,1.32 0,2c-0.99,0.5 -0.99,0.5 -2,1c-0.66,2.53 -0.66,2.53 -1,5c-0.66,0 -1.32,0 -2,0c-0.19,-3.37 -0.19,-3.37 0,-7c0.99,-0.66 1.98,-1.32 3,-2z" fill="#ffffff" id="svg_44"/>
  <path d="m646,615c3.63,0.33 7.26,0.66 11,1c-0.99,0.5 -0.99,0.5 -2,1c-0.33,0.66 -0.66,1.32 -1,2c-2.64,-0.66 -5.28,-1.32 -8,-2c0,-0.66 0,-1.32 0,-2z" fill="#ffffff" id="svg_45" transform="matrix(1 0 0 1 0 0)"/>
  <path d="m339,546c2.64,0 5.28,0 8,0c-0.33,0.99 -0.66,1.98 -1,3c-2.31,0 -4.62,0 -7,0c0,-0.99 0,-1.98 0,-3z" fill="#ffffff" id="svg_46" transform="matrix(1 0 0 1 0 0)"/>
  <path d="m317,529c-3.75,2 -3.75,2 -6,2c0,0.66 0,1.32 0,2c-1.65,0.66 -3.3,1.32 -5,2c0,-0.99 0,-1.98 0,-3c3.86,-2.15 6.55,-3.39 11,-3z" fill="#ffffff" id="svg_47" transform="matrix(1 0 0 1 0 0)"/>
  <path d="m743,516c0.33,0 0.66,0 1,0c0.05,1.44 0.09,2.87 0.13,4.31c0.02,0.8 0.04,1.6 0.07,2.43c-0.2,2.26 -0.2,2.26 -2.2,5.26c-1.46,-4.52 -0.27,-7.52 1,-12z" fill="#ffffff" id="svg_48" transform="matrix(1 0 0 1 0 0)"/>
  <path d="m588,499c0.66,0 1.32,0 2,0c-1.08,4.31 -2.04,7.64 -5,11c0.75,-7.62 0.75,-7.62 3,-11z" fill="#ffffff" id="svg_49" transform="matrix(1 0 0 1 0 0)"/>
  <path d="m671,482c0,0.66 0,1.32 0,2c-2.97,0 -5.94,0 -9,0c0,-0.66 0,-1.32 0,-2c3.48,-1.16 5.46,-0.71 9,0z" fill="#ffffff" id="svg_50" transform="matrix(1 0 0 1 0 0)"/>
  <path d="m305,533c0.66,0.99 1.32,1.98 2,3c-1.37,1.5 -1.37,1.5 -3,3c-0.66,0 -1.32,0 -2,0c-0.33,0.66 -0.66,1.32 -1,2c0,-3.91 1.51,-5.12 4,-8z" fill="#ffffff" id="svg_51" transform="matrix(1 0 0 1 0 0)"/>
  <path d="m249,523c0.66,0.66 1.32,1.32 2,2c-0.02,2.38 -0.02,2.38 -0.37,5.13c-0.12,0.91 -0.23,1.82 -0.34,2.75c-0.1,0.7 -0.19,1.4 -0.29,2.12c-0.33,0 -0.66,0 -1,0c-1.29,-8.57 -1.29,-8.57 0,-12z" fill="#ffffff" id="svg_52" transform="matrix(1 0 0 1 0 0)"/>
  <path d="m640,499c0.33,0 0.66,0 1,0c0.66,3.96 1.32,7.92 2,12c-0.99,0 -1.98,0 -3,0c0,-3.96 0,-7.92 0,-12z" fill="#ffffff" id="svg_53" transform="matrix(1 0 0 1 0 0)"/>
  <path d="m499,488c0.66,0.33 1.32,0.66 2,1c-2.75,4.88 -2.75,4.88 -5,6c-0.66,-0.66 -1.32,-1.32 -2,-2c1.65,-1.65 3.3,-3.3 5,-5z" fill="#ffffff" id="svg_54" transform="matrix(1 0 0 1 0 0)"/>
  <path d="m516,533c0.66,1.32 1.32,2.64 2,4c-1.37,2 -1.37,2 -3,4c-0.66,0 -1.32,0 -2,0c1.87,-5.75 1.87,-5.75 3,-8z" fill="#ffffff" id="svg_55" transform="matrix(1 0 0 1 0 0)"/>
  <path d="m660,483c0.66,0.33 1.32,0.66 2,1c-2.25,3.37 -3.32,3.71 -7,5c-0.99,0.5 -0.99,0.5 -2,1c1.44,-3.81 3.35,-5.27 7,-7z" fill="#ffffff" id="svg_56" transform="matrix(1 0 0 1 0 0)"/>
  <path d="m473,548c0.66,0 1.32,0 2,0c2.57,3.85 1.83,5.59 1,10c-2.3,-3.44 -2.54,-5.94 -3,-10z" fill="#ffffff" id="svg_57" transform="matrix(1 0 0 1 0 0)"/>
  <path d="m250,517c0.66,0.33 1.32,0.66 2,1c0,2.31 0,4.62 0,7c-0.66,0 -1.32,0 -2,0c-0.8,-3.29 -1.1,-4.71 0,-8z" fill="#ffffff" id="svg_58" transform="matrix(1 0 0 1 0 0)"/>
  <path d="m459,482c2.44,1.25 2.44,1.25 5,3c0.33,1.32 0.66,2.64 1,4c-2.31,-1.65 -4.62,-3.3 -7,-5c0.33,-0.66 0.66,-1.32 1,-2z" fill="#ffffff" id="svg_59" transform="matrix(1 0 0 1 0 0)"/>
  <path d="m475,599c3.3,0 6.6,0 10,0c0,0.33 0,0.66 0,1c-3.3,0.66 -6.6,1.32 -10,2c0,-0.99 0,-1.98 0,-3z" fill="#ffffff" id="svg_60" transform="matrix(1 0 0 1 0 0)"/>
  <path d="m552,551c0.66,0.33 1.32,0.66 2,1c0,1.98 0,3.96 0,6c-0.99,-0.33 -1.98,-0.66 -3,-1c0.33,-1.98 0.66,-3.96 1,-6z" fill="#ffffff" id="svg_61" transform="matrix(1 0 0 1 0 0)"/>
  <path d="m322,535c0.66,0 1.32,0 2,0c1.71,1.96 3.38,3.96 5,6c-1.32,0 -2.64,0 -4,0c0,-0.66 0,-1.32 0,-2c-0.66,0 -1.32,0 -2,0c-0.33,-1.32 -0.66,-2.64 -1,-4z" fill="#ffffff" id="svg_62" transform="matrix(1 0 0 1 0 0)"/>
 </g>
</svg>